<?xml version="1.0" standalone="no"?>
<!DOCTYPE svg PUBLIC "-//W3C//DTD SVG 20010904//EN"
 "http://www.w3.org/TR/2001/REC-SVG-20010904/DTD/svg10.dtd">
<svg version="1.0" xmlns="http://www.w3.org/2000/svg"
 width="700.000000pt" height="700.000000pt" viewBox="0 0 700.000000 700.000000"
 preserveAspectRatio="xMidYMid meet">
<metadata>
Created by potrace 1.11, written by Peter Selinger 2001-2013
</metadata>
<g transform="translate(0.000000,700.000000) scale(0.100000,-0.100000)"
fill="#000000" stroke="none">
<path d="M1494 5209 c-122 -18 -254 -48 -327 -75 -137 -51 -248 -104 -327
-155 -25 -16 -52 -32 -60 -36 -35 -16 -172 -127 -247 -200 -163 -158 -269
-304 -364 -503 -70 -145 -129 -334 -144 -460 -4 -30 -10 -77 -15 -103 -7 -48
-5 -334 4 -392 12 -82 18 -117 37 -195 100 -423 391 -826 759 -1051 31 -19 64
-39 75 -46 130 -80 404 -175 570 -197 22 -3 67 -10 101 -14 99 -13 379 -5 444
13 8 3 31 7 51 9 89 11 277 71 396 126 35 17 66 30 68 30 14 0 204 123 270
175 84 66 106 87 385 355 297 285 324 310 329 310 8 -1 87 -74 327 -306 261
-251 320 -306 396 -363 327 -248 699 -367 1101 -355 106 4 308 28 327 39 4 2
20 7 37 9 114 20 335 110 450 183 29 18 55 33 58 33 3 0 48 32 100 70 247 183
468 463 570 725 101 255 129 405 128 675 0 231 -23 368 -93 565 -193 545 -647
958 -1208 1099 -53 14 -117 28 -142 31 -129 17 -207 22 -320 19 -114 -2 -147
-5 -220 -19 -14 -3 -41 -7 -60 -9 -105 -13 -318 -84 -449 -151 -216 -108 -278
-157 -651 -515 -107 -103 -229 -219 -270 -259 -41 -39 -77 -71 -80 -71 -7 0
-67 56 -337 316 -327 316 -380 361 -535 457 -120 74 -347 174 -438 192 -8 2
-33 8 -55 14 -38 10 -62 14 -130 25 -16 2 -50 8 -75 12 -88 14 -315 10 -436
-7z m366 -994 c82 -15 190 -60 265 -111 78 -52 116 -86 381 -342 72 -70 162
-157 201 -194 l71 -67 -207 -199 c-113 -110 -237 -229 -276 -267 -193 -186
-339 -250 -570 -249 -177 0 -305 41 -435 137 -139 104 -247 277 -278 446 -14
76 -7 245 12 316 77 279 317 495 595 534 60 9 183 7 241 -4z m3622 -23 c251
-75 432 -265 497 -522 23 -92 21 -265 -3 -354 -90 -324 -381 -543 -714 -535
-74 2 -108 6 -191 25 -106 23 -239 108 -372 236 -53 51 -182 176 -287 277
-191 183 -192 184 -171 202 12 10 110 103 218 207 108 104 228 219 266 256
125 120 245 188 387 221 88 20 281 13 370 -13z"/>
</g>
</svg>
